Coordinates
version=1
nRows=47
nColumns=15
inDegrees=yes

Units are S.I. units (second, meters, Newtons, ...)
Angles are in degrees.

endheader
time	sacrum_pitch	sacrum_roll	sacrum_yaw	sacrum_x	sacrum_y	sacrum_z	sacroiliac_flx	hip_flx	hip_add	hip_int	knee_flx	ankle_flx	ankle_add	ankle_int
3.10000000	30.00000000	0.00000000	0.00000000	0.09389520	0.06291077	0.00000000	0.00000000	53.81468608	0.00000000	0.00000000	-80.83371609	28.07202477	0.00000000	0.00000000
3.10500000	30.00000000	0.00000000	0.00000000	0.09348752	0.06287106	0.00000000	0.00000000	53.90969828	0.00000000	0.00000000	-80.79438441	28.04851286	0.00000000	0.00000000
3.11000000	30.00000000	0.00000000	0.00000000	0.09306864	0.06287800	0.00000000	0.00000000	54.01962155	0.00000000	0.00000000	-80.83299734	28.10752033	0.00000000	0.00000000
3.11500000	30.00000000	0.00000000	0.00000000	0.09260732	0.06288982	0.00000000	0.00000000	54.09154627	0.00000000	0.00000000	-80.96539194	28.33218863	0.00000000	0.00000000
3.12000000	30.00000000	0.00000000	0.00000000	0.09217540	0.06284495	0.00000000	0.00000000	54.19472795	0.00000000	0.00000000	-81.02311075	28.52770636	0.00000000	0.00000000
3.12500000	30.00000000	0.00000000	0.00000000	0.09172906	0.06283724	0.00000000	0.00000000	54.22522852	0.00000000	0.00000000	-81.01653607	28.61572690	0.00000000	0.00000000
3.13000000	30.00000000	0.00000000	0.00000000	0.09122546	0.06285388	0.00000000	0.00000000	54.34598667	0.00000000	0.00000000	-81.14079446	28.81744836	0.00000000	0.00000000
3.13500000	30.00000000	0.00000000	0.00000000	0.09086216	0.06282232	0.00000000	0.00000000	54.36444308	0.00000000	0.00000000	-81.22704845	28.94330486	0.00000000	0.00000000
3.14000000	30.00000000	0.00000000	0.00000000	0.09040599	0.06280418	0.00000000	0.00000000	54.44350288	0.00000000	0.00000000	-81.36175799	28.97067742	0.00000000	0.00000000
3.14500000	30.00000000	0.00000000	0.00000000	0.08996108	0.06283430	0.00000000	0.00000000	54.54345044	0.00000000	0.00000000	-81.35434254	29.01296787	0.00000000	0.00000000
3.15000000	30.00000000	0.00000000	0.00000000	0.08954401	0.06282637	0.00000000	0.00000000	54.55069811	0.00000000	0.00000000	-81.36093270	29.09863769	0.00000000	0.00000000
3.15500000	30.00000000	0.00000000	0.00000000	0.08907578	0.06278607	0.00000000	0.00000000	54.52885416	0.00000000	0.00000000	-81.30379789	29.15435788	0.00000000	0.00000000
3.16000000	30.00000000	0.00000000	0.00000000	0.08860441	0.06281713	0.00000000	0.00000000	54.60753219	0.00000000	0.00000000	-81.43057799	29.10314744	0.00000000	0.00000000
3.16500000	30.00000000	0.00000000	0.00000000	0.08819403	0.06280390	0.00000000	0.00000000	54.63173378	0.00000000	0.00000000	-81.59279432	29.24320168	0.00000000	0.00000000
3.17000000	30.00000000	0.00000000	0.00000000	0.08778594	0.06279132	0.00000000	0.00000000	54.64954718	0.00000000	0.00000000	-81.80264963	29.24777600	0.00000000	0.00000000
3.17500000	30.00000000	0.00000000	0.00000000	0.08731181	0.06278970	0.00000000	0.00000000	54.70317192	0.00000000	0.00000000	-81.67728392	29.27207240	0.00000000	0.00000000
3.18000000	30.00000000	0.00000000	0.00000000	0.08690658	0.06275907	0.00000000	0.00000000	54.76930684	0.00000000	0.00000000	-81.72617535	29.41468681	0.00000000	0.00000000
3.18500000	30.00000000	0.00000000	0.00000000	0.08644135	0.06274531	0.00000000	0.00000000	54.85371300	0.00000000	0.00000000	-81.72317062	29.42451628	0.00000000	0.00000000
3.19000000	30.00000000	0.00000000	0.00000000	0.08594756	0.06276452	0.00000000	0.00000000	54.86511084	0.00000000	0.00000000	-81.83268123	29.42396431	0.00000000	0.00000000
3.19500000	30.00000000	0.00000000	0.00000000	0.08551447	0.06274672	0.00000000	0.00000000	54.90264127	0.00000000	0.00000000	-81.99063929	29.56605677	0.00000000	0.00000000
3.20000000	30.00000000	0.00000000	0.00000000	0.08510300	0.06273971	0.00000000	0.00000000	54.93712976	0.00000000	0.00000000	-82.04419849	29.66249473	0.00000000	0.00000000
3.20500000	30.00000000	0.00000000	0.00000000	0.08462380	0.06275084	0.00000000	0.00000000	54.95594136	0.00000000	0.00000000	-81.97097183	29.56971688	0.00000000	0.00000000
3.21000000	30.00000000	0.00000000	0.00000000	0.08425116	0.06271536	0.00000000	0.00000000	54.98446603	0.00000000	0.00000000	-82.01618498	29.56537972	0.00000000	0.00000000
3.21500000	30.00000000	0.00000000	0.00000000	0.08377803	0.06271756	0.00000000	0.00000000	55.09742229	0.00000000	0.00000000	-82.07482387	29.67352641	0.00000000	0.00000000
3.22000000	30.00000000	0.00000000	0.00000000	0.08327808	0.06274103	0.00000000	0.00000000	55.17748083	0.00000000	0.00000000	-82.10429682	29.78950983	0.00000000	0.00000000
3.22500000	30.00000000	0.00000000	0.00000000	0.08288830	0.06272286	0.00000000	0.00000000	55.18656018	0.00000000	0.00000000	-82.04153975	29.78024342	0.00000000	0.00000000
3.23000000	30.00000000	0.00000000	0.00000000	0.08242227	0.06269267	0.00000000	0.00000000	55.25815473	0.00000000	0.00000000	-82.03252959	29.69617751	0.00000000	0.00000000
3.23500000	30.00000000	0.00000000	0.00000000	0.08198614	0.06273338	0.00000000	0.00000000	55.34064814	0.00000000	0.00000000	-82.12694229	29.78539203	0.00000000	0.00000000
3.24000000	30.00000000	0.00000000	0.00000000	0.08158467	0.06272174	0.00000000	0.00000000	55.36840637	0.00000000	0.00000000	-82.14777673	29.86015207	0.00000000	0.00000000
3.24500000	30.00000000	0.00000000	0.00000000	0.08116209	0.06270994	0.00000000	0.00000000	55.42952977	0.00000000	0.00000000	-82.28345493	29.89109788	0.00000000	0.00000000
3.25000000	30.00000000	0.00000000	0.00000000	0.08065836	0.06270833	0.00000000	0.00000000	55.50428026	0.00000000	0.00000000	-82.29040751	29.91928975	0.00000000	0.00000000
3.25500000	30.00000000	0.00000000	0.00000000	0.08022170	0.06267688	0.00000000	0.00000000	55.50121660	0.00000000	0.00000000	-82.36414827	29.99087291	0.00000000	0.00000000
3.26000000	30.00000000	0.00000000	0.00000000	0.07981809	0.06267115	0.00000000	0.00000000	55.54597997	0.00000000	0.00000000	-82.49008521	30.07584436	0.00000000	0.00000000
3.26500000	30.00000000	0.00000000	0.00000000	0.07937353	0.06269419	0.00000000	0.00000000	55.36815319	0.00000000	0.00000000	-82.42381506	29.99748779	0.00000000	0.00000000
3.27000000	30.00000000	0.00000000	0.00000000	0.07895071	0.06265654	0.00000000	0.00000000	55.51048597	0.00000000	0.00000000	-82.48756584	29.97149025	0.00000000	0.00000000
3.27500000	30.00000000	0.00000000	0.00000000	0.07850240	0.06264574	0.00000000	0.00000000	55.37696087	0.00000000	0.00000000	-82.46684661	29.91096202	0.00000000	0.00000000
3.28000000	30.00000000	0.00000000	0.00000000	0.07802621	0.06267060	0.00000000	0.00000000	55.56640546	0.00000000	0.00000000	-82.55103294	30.03168590	0.00000000	0.00000000
3.28500000	30.00000000	0.00000000	0.00000000	0.07758524	0.06261860	0.00000000	0.00000000	55.39171715	0.00000000	0.00000000	-82.66786956	30.12147442	0.00000000	0.00000000
3.29000000	30.00000000	0.00000000	0.00000000	0.07717549	0.06260617	0.00000000	0.00000000	55.54937070	0.00000000	0.00000000	-82.91031250	30.32578502	0.00000000	0.00000000
3.29500000	30.00000000	0.00000000	0.00000000	0.07672116	0.06265067	0.00000000	0.00000000	55.31924881	0.00000000	0.00000000	-82.97669543	30.42847699	0.00000000	0.00000000
3.30000000	30.00000000	0.00000000	0.00000000	0.07629340	0.06259634	0.00000000	0.00000000	55.38985771	0.00000000	0.00000000	-82.97208902	30.52598411	0.00000000	0.00000000
3.30500000	30.00000000	0.00000000	0.00000000	0.07577604	0.06254449	0.00000000	0.00000000	55.30930329	0.00000000	0.00000000	-83.07932968	30.81151261	0.00000000	0.00000000
3.31000000	30.00000000	0.00000000	0.00000000	0.07529960	0.06255065	0.00000000	0.00000000	55.33739256	0.00000000	0.00000000	-83.26174623	31.37484371	0.00000000	0.00000000
3.31500000	30.00000000	0.00000000	0.00000000	0.07482877	0.06254656	0.00000000	0.00000000	55.30268306	0.00000000	0.00000000	-83.61264907	32.12361013	0.00000000	0.00000000
3.32000000	30.00000000	0.00000000	0.00000000	0.07440766	0.06254412	0.00000000	0.00000000	55.13846736	0.00000000	0.00000000	-84.02009161	33.10586728	0.00000000	0.00000000
3.32500000	30.00000000	0.00000000	0.00000000	0.07399456	0.06258109	0.00000000	0.00000000	55.19499635	0.00000000	0.00000000	-84.53585027	34.58517767	0.00000000	0.00000000
3.33000000	30.00000000	0.00000000	0.00000000	0.07357574	0.06259426	0.00000000	0.00000000	55.26929897	0.00000000	0.00000000	-85.22312078	36.68231735	0.00000000	0.00000000
